<svg width="203" height="42" viewBox="0 0 203 42" fill="none" xmlns="http://www.w3.org/2000/svg">
<path d="M15.5607 4.15613C11.699 4.15613 7.99541 5.79818 5.26475 8.72104C2.53408 11.6439 1 15.6081 1 19.7417C1 23.8752 2.53408 27.8395 5.26475 30.7623C7.99541 33.6852 11.699 35.3272 15.5607 35.3272C19.4225 35.3272 23.126 33.6852 25.8567 30.7623C28.5874 27.8395 30.1214 23.8752 30.1214 19.7417C30.1214 15.6081 28.5874 11.6439 25.8567 8.72104C23.126 5.79818 19.4225 4.15613 15.5607 4.15613Z" stroke="#48E5FF" stroke-width="2"/>
<path d="M38.714 21.0423L25.5191 15.768L20.4143 31.1711L33.6092 36.4454L38.714 21.0423Z" fill="#353434"/>
<path d="M27.3049 26.415C27.0221 26.415 26.7509 26.5384 26.5509 26.758C26.3509 26.9777 26.2386 27.2755 26.2386 27.5861C26.2386 27.8967 26.3509 28.1946 26.5509 28.4142C26.7509 28.6338 27.0221 28.7572 27.3049 28.7572C27.5877 28.7572 27.8589 28.6338 28.0589 28.4142C28.2589 28.1946 28.3712 27.8967 28.3712 27.5861C28.3712 27.2755 28.2589 26.9777 28.0589 26.758C27.8589 26.5384 27.5877 26.415 27.3049 26.415ZM29.4369 20.7807C29.1541 20.7807 28.8828 20.904 28.6829 21.1236C28.4829 21.3433 28.3705 21.6411 28.3705 21.9517C28.3705 22.2623 28.4829 22.5602 28.6829 22.7798C28.8828 22.9995 29.1541 23.1228 29.4369 23.1228C29.7197 23.1228 29.9909 22.9995 30.1909 22.7798C30.3909 22.5602 30.5032 22.2623 30.5032 21.9517C30.5032 21.6411 30.3909 21.3433 30.1909 21.1236C29.9909 20.904 29.7197 20.7807 29.4369 20.7807Z" fill="#48E5FF"/>
<path d="M43.3548 32.335C42.9748 32.335 42.6339 32.1811 42.3323 31.8733C42.0306 31.5681 41.8798 31.1573 41.8798 30.6408V12.2899C41.8798 10.5474 42.1814 9.02668 42.7847 7.72764C43.388 6.4286 44.2419 5.4178 45.3464 4.69524C46.4532 3.97008 47.7536 3.60748 49.2476 3.60748C49.6942 3.60748 50.0635 3.75487 50.3557 4.04963C50.6454 4.34439 50.7903 4.71219 50.7903 5.15303C50.7903 5.57039 50.6454 5.93299 50.3557 6.24079C50.0635 6.54599 49.6942 6.69858 49.2476 6.69858C48.3546 6.69858 47.5898 6.919 46.9532 7.35984C46.319 7.80068 45.8285 8.4202 45.4818 9.2184C45.135 10.014 44.9616 10.9518 44.9616 12.0317V30.6408C44.9616 31.1573 44.8227 31.5681 44.5448 31.8733C44.2645 32.1811 43.8678 32.335 43.3548 32.335ZM48.6135 15.8584H40.1732C39.7481 15.8584 39.4072 15.7227 39.1507 15.4514C38.8942 15.1828 38.7659 14.8397 38.7659 14.4224C38.7659 13.9815 38.8942 13.6255 39.1507 13.3542C39.4072 13.0855 39.7481 12.9512 40.1732 12.9512H48.6135C49.0363 12.9512 49.3818 13.0855 49.6502 13.3542C49.9186 13.6255 50.0528 13.9815 50.0528 14.4224C50.0528 14.8397 49.9186 15.1828 49.6502 15.4514C49.3818 15.7227 49.0363 15.8584 48.6135 15.8584ZM61.8706 32.4798C60.0845 32.4798 58.4943 32.0455 57.1 31.1769C55.7034 30.3056 54.6085 29.1044 53.8151 27.5732C53.0242 26.0394 52.6287 24.2799 52.6287 22.2949C52.6287 20.2837 53.0242 18.5112 53.8151 16.9774C54.6085 15.4462 55.7034 14.245 57.1 13.3738C58.4943 12.5025 60.0845 12.0669 61.8706 12.0669C63.6568 12.0669 65.2481 12.5025 66.6448 13.3738C68.039 14.245 69.1328 15.4462 69.9261 16.9774C70.7194 18.5112 71.1268 20.2837 71.1481 22.2949C71.1481 24.2799 70.7467 26.0394 69.9439 27.5732C69.1387 29.1044 68.0437 30.3056 66.659 31.1769C65.2766 32.0455 63.6805 32.4798 61.8706 32.4798ZM61.8706 29.467C63.0986 29.467 64.1817 29.1605 65.1199 28.5475C66.0581 27.9345 66.7944 27.088 67.3288 26.0081C67.8656 24.9282 68.134 23.6904 68.134 22.2949C68.134 20.8967 67.8656 19.6525 67.3288 18.5621C66.7944 17.4691 66.0581 16.6161 65.1199 16.0031C64.1817 15.3901 63.0986 15.0836 61.8706 15.0836C60.6664 15.0836 59.5892 15.3901 58.6392 16.0031C57.6915 16.6161 56.9492 17.4691 56.4124 18.5621C55.8756 19.6525 55.6072 20.8967 55.6072 22.2949C55.6072 23.6904 55.8756 24.9282 56.4124 26.0081C56.9492 27.088 57.6915 27.9345 58.6392 28.5475C59.5892 29.1605 60.6664 29.467 61.8706 29.467ZM84.4445 32.4798C82.6797 32.4798 81.1049 32.0324 79.7202 31.1377C78.3378 30.243 77.25 29.03 76.4567 27.4988C75.6634 25.965 75.2667 24.2304 75.2667 22.2949C75.2667 20.3072 75.6515 18.5412 76.4211 16.997C77.193 15.4527 78.2488 14.245 79.5884 13.3738C80.928 12.5025 82.479 12.0669 84.2414 12.0669C85.5596 12.0669 86.7769 12.3499 87.8933 12.916C89.0096 13.4794 90.0036 14.3246 90.8753 15.4514C91.1651 15.7958 91.2708 16.1636 91.1924 16.5548C91.114 16.9487 90.8848 17.2918 90.5048 17.5839C90.2364 17.8056 89.924 17.88 89.5677 17.8069C89.2115 17.7339 88.8991 17.5252 88.6307 17.1809C87.4479 15.7827 85.9848 15.0836 84.2414 15.0836C83.0585 15.0836 82.0146 15.3901 81.1097 16.0031C80.2071 16.6161 79.5041 17.4561 79.0005 18.523C78.4994 19.5898 78.2488 20.8471 78.2488 22.2949C78.2488 23.6669 78.5112 24.893 79.0361 25.9729C79.5611 27.0502 80.2914 27.9019 81.2273 28.5279C82.1655 29.1539 83.2379 29.467 84.4445 29.467C85.271 29.467 86.0073 29.3561 86.6534 29.1344C87.3018 28.9127 87.8826 28.5566 88.3956 28.0662C88.7091 27.774 89.0381 27.6149 89.3825 27.5889C89.7293 27.5654 90.0369 27.6762 90.3052 27.9214C90.6402 28.2397 90.8302 28.5944 90.8753 28.9857C90.9181 29.3796 90.7945 29.7239 90.5048 30.0187C88.8968 31.6594 86.8767 32.4798 84.4445 32.4798ZM104.072 32.5189C102.509 32.5189 101.114 32.1576 99.8856 31.4351C98.6576 30.7099 97.6862 29.6483 96.9712 28.2501C96.2587 26.8546 95.9024 25.1512 95.9024 23.14V13.8707C95.9024 13.4038 96.052 13.0059 96.3513 12.6773C96.653 12.346 97.0164 12.1804 97.4415 12.1804C97.8881 12.1804 98.2621 12.346 98.5638 12.6773C98.8654 13.0059 99.0163 13.4038 99.0163 13.8707V23.14C99.0163 24.5617 99.2621 25.7381 99.7538 26.6693C100.243 27.6006 100.907 28.2931 101.745 28.747C102.581 29.2009 103.524 29.4278 104.574 29.4278C105.603 29.4278 106.512 29.2074 107.303 28.7666C108.097 28.3257 108.733 27.731 109.213 26.9824C109.693 26.2337 109.933 25.3938 109.933 24.4625H111.942C111.897 25.9833 111.535 27.3567 110.855 28.5827C110.174 29.8087 109.241 30.7712 108.059 31.4703C106.876 32.1694 105.547 32.5189 104.072 32.5189ZM111.475 32.335C111.029 32.335 110.66 32.1759 110.367 31.8577C110.078 31.5368 109.933 31.1312 109.933 30.6408V13.8707C109.933 13.3803 110.078 12.976 110.367 12.6577C110.66 12.3395 111.029 12.1804 111.475 12.1804C111.922 12.1804 112.29 12.3395 112.58 12.6577C112.87 12.976 113.014 13.3803 113.014 13.8707V30.6408C113.014 31.1312 112.87 31.5368 112.58 31.8577C112.29 32.1759 111.922 32.335 111.475 32.335ZM125.602 32.4798C124.129 32.4798 122.734 32.2294 121.416 31.7285C120.1 31.2251 119.062 30.5325 118.302 29.6509C118.012 29.2831 117.89 28.8775 117.935 28.434C117.98 27.9932 118.181 27.6136 118.537 27.2954C118.917 26.9772 119.308 26.8428 119.709 26.8924C120.11 26.9393 120.445 27.135 120.714 27.4793C121.16 28.0192 121.813 28.4849 122.673 28.8761C123.533 29.27 124.476 29.467 125.502 29.467C126.953 29.467 128.03 29.2035 128.734 28.6766C129.437 28.1471 129.8 27.491 129.824 26.7085C129.824 25.8972 129.477 25.2164 128.783 24.666C128.092 24.113 126.876 23.6774 125.135 23.3592C122.879 22.8948 121.237 22.1723 120.211 21.1915C119.185 20.2107 118.672 19.0212 118.672 17.623C118.672 16.3709 118.989 15.3354 119.623 14.5163C120.26 13.6946 121.097 13.0816 122.135 12.6773C123.176 12.2703 124.275 12.0669 125.434 12.0669C126.909 12.0669 128.205 12.3317 129.321 12.8612C130.438 13.3881 131.331 14.1172 132.001 15.0484C132.29 15.4162 132.419 15.7958 132.385 16.187C132.352 16.5809 132.168 16.9122 131.833 17.1809C131.498 17.4026 131.112 17.4756 130.675 17.4C130.241 17.327 129.878 17.1196 129.589 16.7779C129.03 16.1388 128.411 15.6914 127.729 15.4358C127.05 15.1776 126.263 15.0484 125.37 15.0484C124.297 15.0484 123.408 15.2688 122.705 15.7097C122.002 16.1505 121.651 16.7518 121.651 17.5135C121.651 18.0039 121.768 18.433 122.003 18.8008C122.239 19.1686 122.679 19.5051 123.325 19.8103C123.974 20.1181 124.9 20.3946 126.104 20.6398C127.779 20.9815 129.102 21.4341 130.073 21.9975C131.045 22.5635 131.743 23.2261 132.168 23.9852C132.591 24.7443 132.802 25.6025 132.802 26.5598C132.802 27.6867 132.518 28.6988 131.951 29.5961C131.381 30.4908 130.56 31.1951 129.489 31.709C128.418 32.2229 127.122 32.4798 125.602 32.4798ZM139.237 32.335C138.857 32.335 138.516 32.1811 138.214 31.8733C137.915 31.5681 137.765 31.1573 137.765 30.6408V12.2899C137.765 10.5474 138.066 9.02668 138.667 7.72764C139.27 6.4286 140.124 5.4178 141.228 4.69524C142.335 3.97008 143.637 3.60748 145.133 3.60748C145.58 3.60748 145.948 3.75487 146.238 4.04963C146.527 4.34439 146.672 4.71219 146.672 5.15303C146.672 5.57039 146.527 5.93299 146.238 6.24079C145.948 6.54599 145.58 6.69858 145.133 6.69858C144.24 6.69858 143.475 6.919 142.839 7.35984C142.202 7.80068 141.71 8.4202 141.364 9.2184C141.017 10.014 140.843 10.9518 140.843 12.0317V30.6408C140.843 31.1573 140.705 31.5681 140.427 31.8733C140.146 32.1811 139.75 32.335 139.237 32.335ZM144.495 15.8584H136.055C135.632 15.8584 135.291 15.7227 135.033 15.4514C134.776 15.1828 134.648 14.8397 134.648 14.4224C134.648 13.9815 134.776 13.6255 135.033 13.3542C135.291 13.0855 135.632 12.9512 136.055 12.9512H144.495C144.92 12.9512 145.266 13.0855 145.532 13.3542C145.8 13.6255 145.935 13.9815 145.935 14.4224C145.935 14.8397 145.8 15.1828 145.532 15.4514C145.266 15.7227 144.92 15.8584 144.495 15.8584ZM153.869 32.335H153.634C152.696 32.335 151.858 32.0533 151.122 31.4899C150.386 30.9238 149.811 30.1452 149.398 29.154C148.984 28.1601 148.778 27.0137 148.778 25.7146V5.2626C148.778 4.7722 148.918 4.37438 149.198 4.06919C149.476 3.76138 149.838 3.60748 150.285 3.60748C150.755 3.60748 151.129 3.76138 151.407 4.06919C151.687 4.37438 151.828 4.7722 151.828 5.2626V25.7146C151.828 26.6693 152 27.4532 152.344 28.0662C152.691 28.6792 153.121 28.9857 153.634 28.9857H154.471C154.896 28.9857 155.231 29.1396 155.476 29.4474C155.723 29.7526 155.846 30.1634 155.846 30.6799C155.846 31.1703 155.661 31.5681 155.291 31.8733C154.922 32.1811 154.449 32.335 153.869 32.335ZM167.568 32.4798C165.782 32.4798 164.19 32.0455 162.794 31.1769C161.4 30.3056 160.306 29.1044 159.512 27.5732C158.719 26.0394 158.323 24.2799 158.323 22.2949C158.323 20.2837 158.719 18.5112 159.512 16.9774C160.306 15.4462 161.4 14.245 162.794 13.3738C164.19 12.5025 165.782 12.0669 167.568 12.0669C169.354 12.0669 170.944 12.5025 172.339 13.3738C173.735 14.245 174.829 15.4462 175.62 16.9774C176.413 18.5112 176.821 20.2837 176.842 22.2949C176.842 24.2799 176.44 26.0394 175.638 27.5732C174.835 29.1044 173.741 30.3056 172.356 31.1769C170.972 32.0455 169.375 32.4798 167.568 32.4798ZM167.568 29.467C168.796 29.467 169.878 29.1605 170.814 28.5475C171.752 27.9345 172.489 27.088 173.026 26.0081C173.561 24.9282 173.828 23.6904 173.828 22.2949C173.828 20.8967 173.561 19.6525 173.026 18.5621C172.489 17.4691 171.752 16.6161 170.814 16.0031C169.878 15.3901 168.796 15.0836 167.568 15.0836C166.361 15.0836 165.283 15.3901 164.333 16.0031C163.385 16.6161 162.643 17.4691 162.106 18.5621C161.572 19.6525 161.305 20.8967 161.305 22.2949C161.305 23.6904 161.572 24.9282 162.106 26.0081C162.643 27.088 163.385 27.9345 164.333 28.5475C165.283 29.1605 166.361 29.467 167.568 29.467ZM186.087 32.335C185.752 32.335 185.451 32.2307 185.182 32.022C184.914 31.8133 184.724 31.5499 184.612 31.2316L179.557 14.5711C179.4 13.8589 179.411 13.289 179.589 12.8612C179.767 12.4308 180.147 12.2156 180.729 12.2156C181.109 12.2156 181.427 12.3264 181.684 12.5482C181.94 12.7673 182.147 13.1351 182.304 13.6516L186.689 28.5827H185.685L189.771 13.5029C189.883 13.1116 190.061 12.7986 190.306 12.5638C190.553 12.3317 190.888 12.2156 191.31 12.2156C191.712 12.2156 192.041 12.3317 192.297 12.5638C192.556 12.7986 192.73 13.1116 192.817 13.5029L196.402 27.9214H195.867L200.053 13.6516C200.32 12.6943 200.833 12.2156 201.593 12.2156C202.172 12.2156 202.563 12.4425 202.765 12.8964C202.967 13.3503 202.956 13.9085 202.733 14.5711L197.674 31.2316C197.586 31.5499 197.412 31.8133 197.153 32.022C196.897 32.2307 196.59 32.335 196.234 32.335C195.921 32.335 195.619 32.2307 195.329 32.022C195.039 31.8133 194.861 31.5499 194.795 31.2316L191.043 16.7035H191.41L187.559 31.2316C187.471 31.5499 187.287 31.8133 187.007 32.022C186.729 32.2307 186.422 32.335 186.087 32.335Z" fill="#48E5FF"/>
<path d="M11.9452 28.8333C11.7148 28.8333 11.5153 28.7433 11.3467 28.5633C11.1757 28.3859 11.0902 28.1642 11.0902 27.8981V14.1878C11.0902 13.9087 11.1721 13.683 11.336 13.5109C11.4999 13.3361 11.703 13.2487 11.9452 13.2487H20.2857C20.5399 13.2487 20.7429 13.3322 20.895 13.4991C21.047 13.6661 21.123 13.8826 21.123 14.1487C21.123 14.3886 21.047 14.5908 20.895 14.7551C20.7429 14.9221 20.5399 15.0055 20.2857 15.0055H12.8003V20.1156H18.1944C18.4509 20.1156 18.6575 20.1978 18.8143 20.3621C18.9711 20.5291 19.0494 20.7391 19.0494 20.9921C19.0494 21.2451 18.9711 21.4551 18.8143 21.6221C18.6575 21.7864 18.4509 21.8686 18.1944 21.8686H12.8003V27.8981C12.8003 28.1642 12.7184 28.3859 12.5545 28.5633C12.3906 28.7433 12.1875 28.8333 11.9452 28.8333Z" fill="#48E5FF"/>
</svg>
