<svg width="157" height="147" viewBox="0 0 157 147" fill="none" xmlns="http://www.w3.org/2000/svg">
<path fill-rule="evenodd" clip-rule="evenodd" d="M86.9107 8.93628C86.9107 4.58704 83.1451 1.06128 78.5 1.06128C73.8549 1.06128 70.0893 4.58704 70.0893 8.93628V138.064C70.0893 142.414 73.8549 145.939 78.5 145.939C83.1451 145.939 86.9107 142.414 86.9107 138.064V8.93628ZM44.8571 25.8936C49.5022 25.8936 53.2678 29.4194 53.2678 33.7686V113.232C53.2678 117.582 49.5022 121.107 44.8571 121.107C40.2121 121.107 36.4464 117.582 36.4464 113.232V33.7686C36.4464 29.4194 40.2121 25.8936 44.8571 25.8936ZM11.2143 50.726C15.8593 50.726 19.625 54.2518 19.625 58.601V88.4C19.625 92.7492 15.8593 96.275 11.2143 96.275C6.56916 96.275 2.80356 92.7492 2.80356 88.4V58.601C2.80356 54.2518 6.56916 50.726 11.2143 50.726ZM112.143 25.8936C116.788 25.8936 120.554 29.4194 120.554 33.7686V113.232C120.554 117.582 116.788 121.107 112.143 121.107C107.498 121.107 103.732 117.582 103.732 113.232V33.7686C103.732 29.4194 107.498 25.8936 112.143 25.8936ZM154.196 58.601C154.196 54.2518 150.431 50.726 145.786 50.726C141.141 50.726 137.375 54.2518 137.375 58.601V88.4C137.375 92.7492 141.141 96.275 145.786 96.275C150.431 96.275 154.196 92.7492 154.196 88.4V58.601Z" fill="#353434"/>
</svg>
