<svg width="78" height="75" viewBox="0 0 78 75" fill="none" xmlns="http://www.w3.org/2000/svg">
<path d="M34.6125 59.7188V15.2812C34.6125 11.0625 32.76 9.375 28.08 9.375H16.2825C11.6025 9.375 9.75 11.0625 9.75 15.2812V59.7188C9.75 63.9375 11.6025 65.625 16.2825 65.625H28.08C32.76 65.625 34.6125 63.9375 34.6125 59.7188Z" stroke="white" stroke-width="1.5" stroke-linecap="round" stroke-linejoin="round"/>
<path d="M68.25 59.7188V15.2812C68.25 11.0625 66.3975 9.375 61.7175 9.375H49.92C45.2725 9.375 43.3875 11.0625 43.3875 15.2812V59.7188C43.3875 63.9375 45.24 65.625 49.92 65.625H61.7175C66.3975 65.625 68.25 63.9375 68.25 59.7188Z" stroke="white" stroke-width="1.5" stroke-linecap="round" stroke-linejoin="round"/>
</svg>
